<svg width="199" height="199" xmlns="http://www.w3.org/2000/svg" xmlns:xlink="http://www.w3.org/1999/xlink" xml:space="preserve" overflow="hidden"><defs><clipPath id="clip0"><rect x="835" y="438" width="199" height="199"/></clipPath></defs><g clip-path="url(#clip0)" transform="translate(-835 -438)"><path d="M1028.63 524.555C1028.63 524.551 1028.63 524.546 1028.62 524.542L947.445 443.369C943.984 439.907 939.384 438 934.491 438 929.598 438 924.997 439.905 921.536 443.367L840.402 524.499C840.375 524.526 840.347 524.555 840.32 524.583 833.215 531.729 833.227 543.324 840.355 550.452 843.612 553.71 847.913 555.597 852.511 555.795 852.698 555.813 852.886 555.822 853.076 555.822L856.312 555.822 856.312 615.561C856.312 627.382 865.93 637 877.754 637L909.513 637C912.731 637 915.343 634.39 915.343 631.17L915.343 584.335C915.343 578.941 919.73 574.553 925.125 574.553L943.857 574.553C949.251 574.553 953.639 578.941 953.639 584.335L953.639 631.17C953.639 634.39 956.249 637 959.469 637L991.228 637C1003.05 637 1012.67 627.382 1012.67 615.561L1012.67 555.822 1015.67 555.822C1020.56 555.822 1025.16 553.917 1028.63 550.455 1035.76 543.315 1035.76 531.7 1028.63 524.555Z" fill="#FFA500"/></g></svg>