<svg width="199" height="199" xmlns="http://www.w3.org/2000/svg" xmlns:xlink="http://www.w3.org/1999/xlink" xml:space="preserve" overflow="hidden"><defs><clipPath id="clip0"><rect x="350" y="438" width="199" height="199"/></clipPath></defs><g clip-path="url(#clip0)" transform="translate(-350 -438)"><path d="M543.634 524.555C543.63 524.551 543.625 524.546 543.621 524.542L462.445 443.369C458.984 439.907 454.384 438 449.491 438 444.598 438 439.997 439.905 436.536 443.367L355.402 524.499C355.375 524.526 355.347 524.555 355.32 524.583 348.215 531.729 348.227 543.324 355.355 550.452 358.611 553.71 362.913 555.597 367.512 555.795 367.698 555.813 367.886 555.822 368.076 555.822L371.312 555.822 371.312 615.561C371.312 627.382 380.93 637 392.754 637L424.513 637C427.731 637 430.343 634.39 430.343 631.17L430.343 584.335C430.343 578.941 434.73 574.553 440.125 574.553L458.857 574.553C464.251 574.553 468.639 578.941 468.639 584.335L468.639 631.17C468.639 634.39 471.249 637 474.469 637L506.228 637C518.052 637 527.67 627.382 527.67 615.561L527.67 555.822 530.67 555.822C535.562 555.822 540.162 553.917 543.625 550.455 550.761 543.315 550.764 531.7 543.634 524.555Z" fill="#0099FF"/></g></svg>