<svg width="297" height="297" xmlns="http://www.w3.org/2000/svg" xmlns:xlink="http://www.w3.org/1999/xlink" xml:space="preserve" overflow="hidden"><g transform="translate(-76 -351)"><path d="M207.678 535.465 241.322 535.465 241.322 630.598 207.678 630.598Z" fill="#0099FF"/><path d="M131.107 535.465 155.471 535.465 155.471 559.828 131.107 559.828Z" fill="#0099FF"/><path d="M293.529 535.465 317.893 535.465 317.893 559.828 293.529 559.828Z" fill="#0099FF"/><path d="M76 484.418 76 621.896C76 626.702 79.8958 630.598 84.7012 630.598L190.275 630.598 190.275 526.764C190.275 521.958 194.171 518.062 198.977 518.062L250.023 518.062C254.829 518.062 258.725 521.958 258.725 526.764L258.725 630.598 364.299 630.598C369.104 630.598 373 626.702 373 621.896L373 484.418ZM172.873 568.529C172.873 573.335 168.977 577.23 164.172 577.23L122.406 577.23C117.601 577.23 113.705 573.335 113.705 568.529L113.705 526.764C113.705 521.958 117.601 518.062 122.406 518.062L164.172 518.062C168.977 518.062 172.873 521.958 172.873 526.764ZM335.295 568.529C335.295 573.335 331.399 577.23 326.594 577.23L284.828 577.23C280.023 577.23 276.127 573.335 276.127 568.529L276.127 526.764C276.127 521.958 280.023 518.062 284.828 518.062L326.594 518.062C331.399 518.062 335.295 521.958 335.295 526.764Z" fill="#0099FF"/><path d="M338.433 403.93C336.508 400.192 332.946 398.86 328.914 399.146L328.914 425.25C328.914 439.643 317.204 451.354 302.811 451.354L264.054 451.354C249.66 451.354 237.95 439.643 237.95 425.25L237.95 399.146 118.309 399.146C115.022 399.146 112.016 400.998 110.538 403.933L78.7571 467.016 370.241 467.016Z" fill="#0099FF"/><path d="M255.353 384.053 255.353 425.25C255.353 430.055 259.248 433.951 264.054 433.951L302.811 433.951C307.616 433.951 311.512 430.055 311.512 425.25L311.512 384.053C318.115 379.128 314.655 368.416 306.291 368.403L260.573 368.403C252.225 368.41 248.738 379.125 255.353 384.053Z" fill="#0099FF"/></g></svg>