<svg width="297" height="297" xmlns="http://www.w3.org/2000/svg" xmlns:xlink="http://www.w3.org/1999/xlink" xml:space="preserve" overflow="hidden"><g transform="translate(-76 -32)"><path d="M207.678 216.465 241.322 216.465 241.322 311.598 207.678 311.598Z" fill="#FFA500"/><path d="M131.107 216.465 155.471 216.465 155.471 240.828 131.107 240.828Z" fill="#FFA500"/><path d="M293.529 216.465 317.893 216.465 317.893 240.828 293.529 240.828Z" fill="#FFA500"/><path d="M76 165.418 76 302.896C76 307.702 79.8958 311.598 84.7012 311.598L190.275 311.598 190.275 207.764C190.275 202.958 194.171 199.062 198.977 199.062L250.023 199.062C254.829 199.062 258.725 202.958 258.725 207.764L258.725 311.598 364.299 311.598C369.104 311.598 373 307.702 373 302.896L373 165.418ZM172.873 249.529C172.873 254.335 168.977 258.23 164.172 258.23L122.406 258.23C117.601 258.23 113.705 254.335 113.705 249.529L113.705 207.764C113.705 202.958 117.601 199.062 122.406 199.062L164.172 199.062C168.977 199.062 172.873 202.958 172.873 207.764ZM335.295 249.529C335.295 254.335 331.399 258.23 326.594 258.23L284.828 258.23C280.023 258.23 276.127 254.335 276.127 249.529L276.127 207.764C276.127 202.958 280.023 199.062 284.828 199.062L326.594 199.062C331.399 199.062 335.295 202.958 335.295 207.764Z" fill="#FFA500"/><path d="M338.433 84.9304C336.508 81.1918 332.946 79.8599 328.914 80.1465L328.914 106.25C328.914 120.643 317.204 132.354 302.811 132.354L264.054 132.354C249.66 132.354 237.95 120.643 237.95 106.25L237.95 80.1465 118.309 80.1465C115.022 80.1465 112.016 81.9981 110.538 84.9327L78.7571 148.016 370.241 148.016Z" fill="#FFA500"/><path d="M255.353 65.0529 255.353 106.25C255.353 111.055 259.248 114.951 264.054 114.951L302.811 114.951C307.616 114.951 311.512 111.055 311.512 106.25L311.512 65.0529C318.115 60.128 314.655 49.4157 306.291 49.4029L260.573 49.4029C252.225 49.4105 248.738 60.1251 255.353 65.0529Z" fill="#FFA500"/></g></svg>