<svg width="199" height="199" xmlns="http://www.w3.org/2000/svg" xmlns:xlink="http://www.w3.org/1999/xlink" xml:space="preserve" overflow="hidden"><defs><clipPath id="clip0"><rect x="588" y="438" width="199" height="199"/></clipPath></defs><g clip-path="url(#clip0)" transform="translate(-588 -438)"><path d="M781.634 524.555C781.63 524.551 781.625 524.546 781.621 524.542L700.445 443.369C696.984 439.907 692.384 438 687.491 438 682.598 438 677.997 439.905 674.536 443.367L593.402 524.499C593.375 524.526 593.347 524.555 593.32 524.583 586.215 531.729 586.227 543.324 593.355 550.452 596.612 553.71 600.913 555.597 605.511 555.795 605.698 555.813 605.886 555.822 606.076 555.822L609.312 555.822 609.312 615.561C609.312 627.382 618.93 637 630.754 637L662.513 637C665.731 637 668.343 634.39 668.343 631.17L668.343 584.335C668.343 578.941 672.73 574.553 678.125 574.553L696.857 574.553C702.251 574.553 706.639 578.941 706.639 584.335L706.639 631.17C706.639 634.39 709.249 637 712.469 637L744.228 637C756.052 637 765.67 627.382 765.67 615.561L765.67 555.822 768.67 555.822C773.562 555.822 778.162 553.917 781.625 550.455 788.761 543.315 788.764 531.7 781.634 524.555Z" fill="#FF0000"/></g></svg>