<svg width="296" height="297" xmlns="http://www.w3.org/2000/svg" xmlns:xlink="http://www.w3.org/1999/xlink" xml:space="preserve" overflow="hidden"><g transform="translate(-492 -354)"><path d="M131.234 183.844 164.766 183.844 164.766 278.656 131.234 278.656Z" fill="#FF0000" transform="matrix(1 0 0 1.00338 492 354)"/><path d="M54.9219 183.844 79.2031 183.844 79.2031 208.125 54.9219 208.125Z" fill="#FF0000" transform="matrix(1 0 0 1.00338 492 354)"/><path d="M216.797 183.844 241.078 183.844 241.078 208.125 216.797 208.125Z" fill="#FF0000" transform="matrix(1 0 0 1.00338 492 354)"/><path d="M0 132.969 0 269.984C0 274.774 3.88269 278.656 8.67188 278.656L113.891 278.656 113.891 175.172C113.891 170.383 117.773 166.5 122.562 166.5L173.438 166.5C178.227 166.5 182.109 170.383 182.109 175.172L182.109 278.656 287.328 278.656C292.117 278.656 296 274.774 296 269.984L296 132.969ZM96.5469 216.797C96.5469 221.586 92.6642 225.469 87.875 225.469L46.25 225.469C41.4608 225.469 37.5781 221.586 37.5781 216.797L37.5781 175.172C37.5781 170.383 41.4608 166.5 46.25 166.5L87.875 166.5C92.6642 166.5 96.5469 170.383 96.5469 175.172ZM258.422 216.797C258.422 221.586 254.539 225.469 249.75 225.469L208.125 225.469C203.336 225.469 199.453 221.586 199.453 216.797L199.453 175.172C199.453 170.383 203.336 166.5 208.125 166.5L249.75 166.5C254.539 166.5 258.422 170.383 258.422 175.172Z" fill="#FF0000" transform="matrix(1 0 0 1.00338 492 354)"/><path d="M261.549 52.7522C259.631 49.0262 256.08 47.6988 252.062 47.9844L252.062 74C252.062 88.345 240.392 100.016 226.047 100.016L187.421 100.016C173.076 100.016 161.405 88.345 161.405 74L161.405 47.9844 42.1661 47.9844C38.891 47.9844 35.8952 49.8298 34.4216 52.7545L2.74783 115.625 293.25 115.625Z" fill="#FF0000" transform="matrix(1 0 0 1.00338 492 354)"/><path d="M178.749 32.9416 178.749 74C178.749 78.7892 182.631 82.6719 187.421 82.6719L226.047 82.6719C230.836 82.6719 234.719 78.7892 234.719 74L234.719 32.9416C241.3 28.0333 237.852 17.357 229.516 17.3443L183.952 17.3443C175.632 17.3518 172.156 28.0304 178.749 32.9416Z" fill="#FF0000" transform="matrix(1 0 0 1.00338 492 354)"/></g></svg>