<svg width="297" height="297" xmlns="http://www.w3.org/2000/svg" xmlns:xlink="http://www.w3.org/1999/xlink" xml:space="preserve" overflow="hidden"><g transform="translate(-507 -40)"><path d="M638.678 224.465 672.322 224.465 672.322 319.598 638.678 319.598Z" fill="#FFFFFF"/><path d="M562.107 224.465 586.471 224.465 586.471 248.828 562.107 248.828Z" fill="#FFFFFF"/><path d="M724.529 224.465 748.893 224.465 748.893 248.828 724.529 248.828Z" fill="#FFFFFF"/><path d="M507 173.418 507 310.896C507 315.702 510.896 319.598 515.701 319.598L621.275 319.598 621.275 215.764C621.275 210.958 625.171 207.062 629.977 207.062L681.023 207.062C685.829 207.062 689.725 210.958 689.725 215.764L689.725 319.598 795.299 319.598C800.104 319.598 804 315.702 804 310.896L804 173.418ZM603.873 257.529C603.873 262.335 599.977 266.23 595.172 266.23L553.406 266.23C548.601 266.23 544.705 262.335 544.705 257.529L544.705 215.764C544.705 210.958 548.601 207.062 553.406 207.062L595.172 207.062C599.977 207.062 603.873 210.958 603.873 215.764ZM766.295 257.529C766.295 262.335 762.399 266.23 757.594 266.23L715.828 266.23C711.023 266.23 707.127 262.335 707.127 257.529L707.127 215.764C707.127 210.958 711.023 207.062 715.828 207.062L757.594 207.062C762.399 207.062 766.295 210.958 766.295 215.764Z" fill="#FFFFFF"/><path d="M769.433 92.9304C767.508 89.1918 763.946 87.8599 759.914 88.1465L759.914 114.25C759.914 128.643 748.204 140.354 733.811 140.354L695.054 140.354C680.66 140.354 668.95 128.643 668.95 114.25L668.95 88.1465 549.309 88.1465C546.022 88.1465 543.016 89.9981 541.538 92.9327L509.757 156.016 801.241 156.016Z" fill="#FFFFFF"/><path d="M686.353 73.0529 686.353 114.25C686.353 119.055 690.248 122.951 695.054 122.951L733.811 122.951C738.616 122.951 742.512 119.055 742.512 114.25L742.512 73.0529C749.115 68.128 745.655 57.4157 737.291 57.4029L691.573 57.4029C683.225 57.4105 679.738 68.1251 686.353 73.0529Z" fill="#FFFFFF"/></g></svg>