<svg width="199" height="199" xmlns="http://www.w3.org/2000/svg" xmlns:xlink="http://www.w3.org/1999/xlink" xml:space="preserve" overflow="hidden"><defs><clipPath id="clip0"><rect x="1052" y="438" width="199" height="199"/></clipPath></defs><g clip-path="url(#clip0)" transform="translate(-1052 -438)"><path d="M1245.63 524.555C1245.63 524.551 1245.63 524.546 1245.62 524.542L1164.44 443.369C1160.98 439.907 1156.38 438 1151.49 438 1146.6 438 1142 439.905 1138.54 443.367L1057.4 524.499C1057.37 524.526 1057.35 524.555 1057.32 524.583 1050.21 531.729 1050.23 543.324 1057.35 550.452 1060.61 553.71 1064.91 555.597 1069.51 555.795 1069.7 555.813 1069.89 555.822 1070.08 555.822L1073.31 555.822 1073.31 615.561C1073.31 627.382 1082.93 637 1094.75 637L1126.51 637C1129.73 637 1132.34 634.39 1132.34 631.17L1132.34 584.335C1132.34 578.941 1136.73 574.553 1142.12 574.553L1160.86 574.553C1166.25 574.553 1170.64 578.941 1170.64 584.335L1170.64 631.17C1170.64 634.39 1173.25 637 1176.47 637L1208.23 637C1220.05 637 1229.67 627.382 1229.67 615.561L1229.67 555.822 1232.67 555.822C1237.56 555.822 1242.16 553.917 1245.63 550.455 1252.76 543.315 1252.76 531.7 1245.63 524.555Z" fill="#FFFFFF"/></g></svg>